<?xml version="1.0" encoding="UTF-8"?>
<svg width="20px" height="20px" viewBox="0 0 20 20" version="1.1" xmlns="http://www.w3.org/2000/svg" xmlns:xlink="http://www.w3.org/1999/xlink">
    <!-- Generator: Sketch 50.2 (55047) - http://www.bohemiancoding.com/sketch -->
    <title>Icon_Contacts Copy 2</title>
    <desc>Created with Sketch.</desc>
    <defs></defs>
    <g id="ALL" stroke="none" stroke-width="1" fill="none" fill-rule="evenodd">
        <g id="01_Activity_Categories" transform="translate(-101.000000, -2133.000000)" fill="#FFFFFF">
            <g id="Menu" transform="translate(0.000000, 2123.000000)">
                <g id="Icon_Contacts-Copy-2" transform="translate(101.000000, 10.000000)">
                    <path d="M7,8 C8.65685425,8 10,6.65685425 10,5 C10,3.34314575 8.65685425,2 7,2 C5.34314575,2 4,3.34314575 4,5 C4,6.65685425 5.34314575,8 7,8 Z M7,10 C4.23857625,10 2,7.76142375 2,5 C2,2.23857625 4.23857625,0 7,0 C9.76142375,0 12,2.23857625 12,5 C12,7.76142375 9.76142375,10 7,10 Z" id="Oval-16" fill-rule="nonzero"></path>
                    <path d="M2,20 L0,20 L0,14.9555516 C0,11.1141065 3.11410653,8 6.95555162,8 C9.67787355,8 12.115013,9.57866536 13.2530081,11.9989734 C13.4352861,12.3866454 13.5814804,12.7909525 13.6893294,13.2073933 C13.7447908,13.421548 13.7900436,13.6386473 13.8248681,13.8581055 L11.8495829,14.1715513 C11.8248061,14.0154123 11.7926282,13.8610395 11.7532034,13.7088073 C11.6765666,13.412887 11.5726816,13.1255884 11.4430904,12.8499715 C10.6318516,11.1246145 8.89567461,10 6.95555162,10 C4.21867603,10 2,12.218676 2,14.9555516 L2,20 Z" id="Rectangle-6" fill-rule="nonzero"></path>
                    <g id="Group-2" transform="translate(8.000000, 10.000000)">
                        <rect id="Rectangle-5" transform="translate(3.000000, 7.000000) rotate(-45.000000) translate(-3.000000, -7.000000) " x="2" y="4" width="2" height="6"></rect>
                        <polygon id="Rectangle-5-Copy" transform="translate(7.000000, 5.000000) scale(-1, 1) rotate(-45.000000) translate(-7.000000, -5.000000) " points="6.00043041 0 8 0 7.99956959 10 6 10"></polygon>
                    </g>
                </g>
            </g>
        </g>
    </g>
</svg>