<?xml version="1.0" encoding="UTF-8"?>
<svg width="20px" height="19px" viewBox="0 0 20 19" version="1.1" xmlns="http://www.w3.org/2000/svg" xmlns:xlink="http://www.w3.org/1999/xlink">
    <!-- Generator: Sketch 50.2 (55047) - http://www.bohemiancoding.com/sketch -->
    <title>Icon_Performance Copy 2</title>
    <desc>Created with Sketch.</desc>
    <defs></defs>
    <g id="ALL" stroke="none" stroke-width="1" fill="none" fill-rule="evenodd">
        <g id="01_Activity_Categories" transform="translate(-252.000000, -2133.000000)" fill="#FFFFFF">
            <g id="Menu" transform="translate(0.000000, 2123.000000)">
                <g id="Icon_Performance-Copy-2" transform="translate(252.000000, 10.000000)">
                    <rect id="Rectangle-12" x="11.4285714" y="1" width="7.61904762" height="1.89473684"></rect>
                    <polygon id="Rectangle-12-Copy-2" transform="translate(13.719760, 6.535507) rotate(-45.000000) translate(-13.719760, -6.535507) " points="7.00191742 5.72291743 20.4376018 5.45335951 20.4376018 7.34809635 7.00191742 7.61765428"></polygon>
                    <polygon id="Rectangle-12-Copy-3" transform="translate(8.408026, 9.363773) scale(-1, 1) rotate(-45.000000) translate(-8.408026, -9.363773) " points="5.61149812 8.42394488 11.2651687 8.41640464 11.2651687 10.3111415 5.55088298 10.3111415"></polygon>
                    <polygon id="Rectangle-12-Copy-4" transform="translate(4.262602, 10.726009) rotate(-45.000000) translate(-4.262602, -10.726009) " points="-0.59245306 9.72155172 9.11765806 9.83572963 9.11765806 11.7304665 -0.59245306 11.6162886"></polygon>
                    <rect id="Rectangle-12-Copy" transform="translate(18.095238, 4.789474) rotate(90.000000) translate(-18.095238, -4.789474) " x="14.2857143" y="3.84210526" width="7.61904762" height="1.89473684"></rect>
                    <rect id="Rectangle-10" x="0" y="17.1052632" width="19.047619" height="1.89473684"></rect>
                </g>
            </g>
        </g>
    </g>
</svg>