<?xml version="1.0" encoding="UTF-8"?>
<svg width="18px" height="20px" viewBox="0 0 18 20" version="1.1" xmlns="http://www.w3.org/2000/svg" xmlns:xlink="http://www.w3.org/1999/xlink">
    <!-- Generator: Sketch 50.2 (55047) - http://www.bohemiancoding.com/sketch -->
    <title>Icon_Activity Copy 2</title>
    <desc>Created with Sketch.</desc>
    <defs></defs>
    <g id="ALL" stroke="none" stroke-width="1" fill="none" fill-rule="evenodd">
        <g id="01_Activity_Categories" transform="translate(-29.000000, -2133.000000)" fill="#FFFFFF">
            <g id="Menu" transform="translate(0.000000, 2123.000000)">
                <g id="Icon_Activity-Copy-2" transform="translate(29.000000, 10.000000)">
                    <path d="M2,4 L2,18 L16,18 L16,4 L2,4 Z M0,2 L18,2 L18,20 L0,20 L0,2 Z" id="Rectangle-11" fill-rule="nonzero"></path>
                    <rect id="Rectangle" x="2" y="0" width="2" height="2"></rect>
                    <rect id="Rectangle-Copy" x="14" y="0" width="2" height="2"></rect>
                    <rect id="Rectangle-2" x="0" y="6" width="18" height="2"></rect>
                    <path d="M12,16 C10.3431458,16 9,14.6568542 9,13 C9,11.3431458 10.3431458,10 12,10 C13.6568542,10 15,11.3431458 15,13 C15,14.6568542 13.6568542,16 12,16 Z M12,14 C12.5522847,14 13,13.5522847 13,13 C13,12.4477153 12.5522847,12 12,12 C11.4477153,12 11,12.4477153 11,13 C11,13.5522847 11.4477153,14 12,14 Z" id="Oval" fill-rule="nonzero"></path>
                </g>
            </g>
        </g>
    </g>
</svg>